<mxfile host="65bd71144e">
    <diagram id="UJdVG02fsfTL8Iua6NV-" name="MAIN">
        <mxGraphModel dx="2262" dy="-1247" grid="1" gridSize="10" guides="1" tooltips="1" connect="1" arrows="1" fold="1" page="0" pageScale="1" pageWidth="2339" pageHeight="3300" math="0" shadow="0">
            <root>
                <mxCell id="0"/>
                <mxCell id="1" parent="0"/>
                <mxCell id="2" value="BOOKS" style="whiteSpace=wrap;html=1;" vertex="1" parent="1">
                    <mxGeometry x="-1240" y="1750" width="140" height="70" as="geometry"/>
                </mxCell>
                <mxCell id="20" style="edgeStyle=none;html=1;exitX=0;exitY=0.5;exitDx=0;exitDy=0;" edge="1" parent="1" source="4">
                    <mxGeometry relative="1" as="geometry">
                        <mxPoint x="-770" y="1790" as="targetPoint"/>
                    </mxGeometry>
                </mxCell>
                <mxCell id="4" value="displayAPI" style="whiteSpace=wrap;html=1;" vertex="1" parent="1">
                    <mxGeometry x="-750" y="1800" width="140" height="70" as="geometry"/>
                </mxCell>
                <mxCell id="18" value="" style="edgeStyle=none;html=1;" edge="1" parent="1" source="5" target="4">
                    <mxGeometry relative="1" as="geometry"/>
                </mxCell>
                <mxCell id="19" style="html=1;exitX=0;exitY=0.5;exitDx=0;exitDy=0;entryX=1;entryY=0.5;entryDx=0;entryDy=0;" edge="1" parent="1" source="5" target="7">
                    <mxGeometry relative="1" as="geometry"/>
                </mxCell>
                <mxCell id="5" value="dataAPI" style="whiteSpace=wrap;html=1;" vertex="1" parent="1">
                    <mxGeometry x="-750" y="1710" width="140" height="70" as="geometry"/>
                </mxCell>
                <mxCell id="10" value="" style="edgeStyle=none;html=1;" edge="1" parent="1" source="6" target="5">
                    <mxGeometry relative="1" as="geometry"/>
                </mxCell>
                <mxCell id="14" style="edgeStyle=none;html=1;exitX=0;exitY=0.75;exitDx=0;exitDy=0;entryX=1;entryY=0.5;entryDx=0;entryDy=0;" edge="1" parent="1" source="6" target="4">
                    <mxGeometry relative="1" as="geometry"/>
                </mxCell>
                <mxCell id="6" value="dictionary" style="whiteSpace=wrap;html=1;" vertex="1" parent="1">
                    <mxGeometry x="-550" y="1740" width="140" height="70" as="geometry"/>
                </mxCell>
                <mxCell id="21" style="edgeStyle=none;html=1;exitX=1;exitY=0.5;exitDx=0;exitDy=0;" edge="1" parent="1" source="7">
                    <mxGeometry relative="1" as="geometry">
                        <mxPoint x="-750" y="1745" as="targetPoint"/>
                    </mxGeometry>
                </mxCell>
                <mxCell id="22" style="edgeStyle=none;html=1;exitX=1;exitY=0.5;exitDx=0;exitDy=0;entryX=0;entryY=0.5;entryDx=0;entryDy=0;" edge="1" parent="1" source="7" target="4">
                    <mxGeometry relative="1" as="geometry"/>
                </mxCell>
                <mxCell id="7" value="components" style="whiteSpace=wrap;html=1;" vertex="1" parent="1">
                    <mxGeometry x="-910" y="1756" width="140" height="70" as="geometry"/>
                </mxCell>
                <mxCell id="8" value="main" style="whiteSpace=wrap;html=1;" vertex="1" parent="1">
                    <mxGeometry x="-1070" y="1750" width="140" height="70" as="geometry"/>
                </mxCell>
            </root>
        </mxGraphModel>
    </diagram>
</mxfile>